frame:0    pts:512     pts_time:0.0333333
lavfi.scene_score=0.178618
frame:1    pts:49152   pts_time:3.2
lavfi.scene_score=0.434622
frame:2    pts:110080  pts_time:7.166667
lavfi.scene_score=0.508023
frame:3    pts:251904  pts_time:16.4
lavfi.scene_score=0.419266
frame:4    pts:276480  pts_time:18
lavfi.scene_score=0.256407
frame:5    pts:276992  pts_time:18.033333
lavfi.scene_score=0.118138
frame:6    pts:357376  pts_time:23.266667
lavfi.scene_score=0.138682
frame:7    pts:357888  pts_time:23.3
lavfi.scene_score=0.410732
frame:8    pts:437248  pts_time:28.466667
lavfi.scene_score=0.548602
frame:9    pts:437760  pts_time:28.5
lavfi.scene_score=0.181308
frame:10   pts:551936  pts_time:35.933333
lavfi.scene_score=0.206554
frame:11   pts:559616  pts_time:36.433333
lavfi.scene_score=0.102900
frame:12   pts:603136  pts_time:39.266667
lavfi.scene_score=0.196598
frame:13   pts:604672  pts_time:39.366667
lavfi.scene_score=0.156286
frame:14   pts:605184  pts_time:39.4
lavfi.scene_score=0.238855
frame:15   pts:606208  pts_time:39.466667
lavfi.scene_score=0.159376
frame:16   pts:606720  pts_time:39.5
lavfi.scene_score=0.459552
frame:17   pts:607744  pts_time:39.566667
lavfi.scene_score=0.328012
frame:18   pts:608256  pts_time:39.6
lavfi.scene_score=0.156719
frame:19   pts:608768  pts_time:39.633333
lavfi.scene_score=0.216523
frame:20   pts:610304  pts_time:39.733333
lavfi.scene_score=0.139032
frame:21   pts:610816  pts_time:39.766667
lavfi.scene_score=0.127402
frame:22   pts:611328  pts_time:39.8
lavfi.scene_score=0.169543
frame:23   pts:611840  pts_time:39.833333
lavfi.scene_score=0.220406
frame:24   pts:612864  pts_time:39.9
lavfi.scene_score=0.232485
frame:25   pts:613376  pts_time:39.933333
lavfi.scene_score=0.125861
frame:26   pts:739328  pts_time:48.133333
lavfi.scene_score=0.211841
frame:27   pts:807424  pts_time:52.566667
lavfi.scene_score=0.275765
frame:28   pts:928768  pts_time:60.466667
lavfi.scene_score=0.267916
frame:29   pts:1022464 pts_time:66.566667
lavfi.scene_score=0.335908
frame:30   pts:1192448 pts_time:77.633333
lavfi.scene_score=0.315529
frame:31   pts:1276928 pts_time:83.133333
lavfi.scene_score=0.236571
frame:32   pts:1311232 pts_time:85.366667
lavfi.scene_score=0.117796
frame:33   pts:1353728 pts_time:88.133333
lavfi.scene_score=0.262941
frame:34   pts:1418752 pts_time:92.366667
lavfi.scene_score=0.258872
frame:35   pts:1526784 pts_time:99.4
lavfi.scene_score=0.170550
frame:36   pts:1633280 pts_time:106.333333
lavfi.scene_score=0.217319
frame:37   pts:1686016 pts_time:109.766667
lavfi.scene_score=0.333821
frame:38   pts:1795072 pts_time:116.866667
lavfi.scene_score=0.267049
frame:39   pts:1908224 pts_time:124.233333
lavfi.scene_score=0.301034
frame:40   pts:2022912 pts_time:131.7
lavfi.scene_score=0.327641
frame:41   pts:2066432 pts_time:134.533333
lavfi.scene_score=0.194069
frame:42   pts:2141696 pts_time:139.433333
lavfi.scene_score=0.218614
frame:43   pts:2187776 pts_time:142.433333
lavfi.scene_score=0.185462
frame:44   pts:2244608 pts_time:146.133333
lavfi.scene_score=0.286517
frame:45   pts:2309632 pts_time:150.366667
lavfi.scene_score=0.285335
frame:46   pts:2430464 pts_time:158.233333
lavfi.scene_score=0.188035
frame:47   pts:2485248 pts_time:161.8
lavfi.scene_score=0.229793
frame:48   pts:2560512 pts_time:166.7
lavfi.scene_score=0.148287
frame:49   pts:2612224 pts_time:170.066667
lavfi.scene_score=0.316656
frame:50   pts:2741760 pts_time:178.5
lavfi.scene_score=0.228082
frame:51   pts:2806272 pts_time:182.7
lavfi.scene_score=0.194165
frame:52   pts:2911744 pts_time:189.566667
lavfi.scene_score=0.171281
frame:53   pts:2912768 pts_time:189.633333
lavfi.scene_score=0.157698
frame:54   pts:2982400 pts_time:194.166667
lavfi.scene_score=0.155013
frame:55   pts:2983424 pts_time:194.233333
lavfi.scene_score=0.120087
frame:56   pts:3129856 pts_time:203.766667
lavfi.scene_score=0.122900
frame:57   pts:3131392 pts_time:203.866667
lavfi.scene_score=0.213477
frame:58   pts:3261440 pts_time:212.333333
lavfi.scene_score=0.210653
frame:59   pts:3281920 pts_time:213.666667
lavfi.scene_score=0.273744
frame:60   pts:3401216 pts_time:221.433333
lavfi.scene_score=0.151782
frame:61   pts:3468800 pts_time:225.833333
lavfi.scene_score=0.126973
frame:62   pts:3469824 pts_time:225.9
lavfi.scene_score=0.123819
frame:63   pts:3584000 pts_time:233.333333
lavfi.scene_score=0.124238
frame:64   pts:3631104 pts_time:236.4
lavfi.scene_score=0.101912
frame:65   pts:3734016 pts_time:243.1
lavfi.scene_score=0.238544
frame:66   pts:3774464 pts_time:245.733333
lavfi.scene_score=0.186108
frame:67   pts:3913216 pts_time:254.766667
lavfi.scene_score=0.134666
frame:68   pts:4022272 pts_time:261.866667
lavfi.scene_score=0.187794
frame:69   pts:4100096 pts_time:266.933333
lavfi.scene_score=0.210912
frame:70   pts:4219904 pts_time:274.733333
lavfi.scene_score=0.274916
frame:71   pts:4264448 pts_time:277.633333
lavfi.scene_score=0.213918
frame:72   pts:4304384 pts_time:280.233333
lavfi.scene_score=0.348871
frame:73   pts:4379136 pts_time:285.1
lavfi.scene_score=0.309309
frame:74   pts:4451328 pts_time:289.8
lavfi.scene_score=0.224773
frame:75   pts:4513792 pts_time:293.866667
lavfi.scene_score=0.217964
frame:76   pts:4576768 pts_time:297.966667
lavfi.scene_score=0.307053
frame:77   pts:4635648 pts_time:301.8
lavfi.scene_score=0.216742
frame:78   pts:4713984 pts_time:306.9
lavfi.scene_score=0.162364
frame:79   pts:4742144 pts_time:308.733333
lavfi.scene_score=0.273766
frame:80   pts:4744192 pts_time:308.866667
lavfi.scene_score=0.115121
frame:81   pts:4831232 pts_time:314.533333
lavfi.scene_score=0.300830
frame:82   pts:4894720 pts_time:318.666667
lavfi.scene_score=0.230217
frame:83   pts:4895744 pts_time:318.733333
lavfi.scene_score=0.142521
frame:84   pts:4952576 pts_time:322.433333
lavfi.scene_score=0.206491
frame:85   pts:4993536 pts_time:325.1
lavfi.scene_score=0.223804
frame:86   pts:5068288 pts_time:329.966667
lavfi.scene_score=0.305028
frame:87   pts:5108736 pts_time:332.6
lavfi.scene_score=0.346785
frame:88   pts:5213696 pts_time:339.433333
lavfi.scene_score=0.372903
frame:89   pts:5268480 pts_time:343
lavfi.scene_score=0.168373
frame:90   pts:5269504 pts_time:343.066667
lavfi.scene_score=0.164681
frame:91   pts:5426176 pts_time:353.266667
lavfi.scene_score=0.163931
frame:92   pts:5466624 pts_time:355.9
lavfi.scene_score=0.286207
frame:93   pts:5502464 pts_time:358.233333
lavfi.scene_score=0.329997
frame:94   pts:5604864 pts_time:364.9
lavfi.scene_score=0.401909
frame:95   pts:5662720 pts_time:368.666667
lavfi.scene_score=0.323791
frame:96   pts:5729792 pts_time:373.033333
lavfi.scene_score=0.296552
frame:97   pts:5730816 pts_time:373.1
lavfi.scene_score=0.104407
frame:98   pts:5765120 pts_time:375.333333
lavfi.scene_score=0.104889
frame:99   pts:5864960 pts_time:381.833333
lavfi.scene_score=0.305666
frame:100  pts:5892096 pts_time:383.6
lavfi.scene_score=0.288295
frame:101  pts:5970432 pts_time:388.7
lavfi.scene_score=0.418907
frame:102  pts:6029312 pts_time:392.533333
lavfi.scene_score=0.511549
frame:103  pts:6136320 pts_time:399.5
lavfi.scene_score=0.403447
frame:104  pts:6241792 pts_time:406.366667
lavfi.scene_score=0.461633
frame:105  pts:6351360 pts_time:413.5
lavfi.scene_score=0.369027
frame:106  pts:6351872 pts_time:413.533333
lavfi.scene_score=0.102869
frame:107  pts:6390272 pts_time:416.033333
lavfi.scene_score=0.243012
frame:108  pts:6493696 pts_time:422.766667
lavfi.scene_score=0.164031
frame:109  pts:6530560 pts_time:425.166667
lavfi.scene_score=0.169840
frame:110  pts:6590464 pts_time:429.066667
lavfi.scene_score=0.186919
frame:111  pts:6612992 pts_time:430.533333
lavfi.scene_score=0.200546
frame:112  pts:6692864 pts_time:435.733333
lavfi.scene_score=0.184915
frame:113  pts:6729728 pts_time:438.133333
lavfi.scene_score=0.150604
frame:114  pts:6770688 pts_time:440.8
lavfi.scene_score=0.231940
frame:115  pts:6838784 pts_time:445.233333
lavfi.scene_score=0.149810
frame:116  pts:6902784 pts_time:449.4
lavfi.scene_score=0.224520
frame:117  pts:7002624 pts_time:455.9
lavfi.scene_score=0.222362
frame:118  pts:7136768 pts_time:464.633333
lavfi.scene_score=0.252955
frame:119  pts:7180800 pts_time:467.5
lavfi.scene_score=0.237073
frame:120  pts:7324672 pts_time:476.866667
lavfi.scene_score=0.234268
frame:121  pts:7452160 pts_time:485.166667
lavfi.scene_score=0.253521
frame:122  pts:7518208 pts_time:489.466667
lavfi.scene_score=0.205650
frame:123  pts:7553536 pts_time:491.766667
lavfi.scene_score=0.172266
frame:124  pts:7629312 pts_time:496.7
lavfi.scene_score=0.119159
frame:125  pts:7636480 pts_time:497.166667
lavfi.scene_score=0.209620
frame:126  pts:7746560 pts_time:504.333333
lavfi.scene_score=0.296522
frame:127  pts:7882752 pts_time:513.2
lavfi.scene_score=0.296815
frame:128  pts:7955456 pts_time:517.933333
lavfi.scene_score=0.241579
frame:129  pts:8047616 pts_time:523.933333
lavfi.scene_score=0.117731
frame:130  pts:8056832 pts_time:524.533333
lavfi.scene_score=0.354624
frame:131  pts:8057344 pts_time:524.566667
lavfi.scene_score=0.115065
frame:132  pts:8105984 pts_time:527.733333
lavfi.scene_score=0.154520
frame:133  pts:8190976 pts_time:533.266667
lavfi.scene_score=0.167241
frame:134  pts:8231424 pts_time:535.9
lavfi.scene_score=0.110327
frame:135  pts:8267776 pts_time:538.266667
lavfi.scene_score=0.136274
frame:136  pts:8268800 pts_time:538.333333
lavfi.scene_score=0.151530
frame:137  pts:8364032 pts_time:544.533333
lavfi.scene_score=0.179466
frame:138  pts:8365056 pts_time:544.6
lavfi.scene_score=0.197030
frame:139  pts:8465408 pts_time:551.133333
lavfi.scene_score=0.195221
frame:140  pts:8532992 pts_time:555.533333
lavfi.scene_score=0.190512
frame:141  pts:8548352 pts_time:556.533333
lavfi.scene_score=0.244657
frame:142  pts:8643072 pts_time:562.7
lavfi.scene_score=0.253611
frame:143  pts:8752128 pts_time:569.8
lavfi.scene_score=0.329788
frame:144  pts:8837632 pts_time:575.366667
lavfi.scene_score=0.229083
frame:145  pts:8888832 pts_time:578.7
lavfi.scene_score=0.184420
frame:146  pts:8923648 pts_time:580.966667
lavfi.scene_score=0.119703
frame:147  pts:9015296 pts_time:586.933333
lavfi.scene_score=0.258141
frame:148  pts:9056256 pts_time:589.6
lavfi.scene_score=0.236382
frame:149  pts:9166336 pts_time:596.766667
lavfi.scene_score=0.177469
frame:150  pts:9224192 pts_time:600.533333
lavfi.scene_score=0.169815
frame:151  pts:9225216 pts_time:600.6
lavfi.scene_score=0.166368
frame:152  pts:9307648 pts_time:605.966667
lavfi.scene_score=0.253886
frame:153  pts:9456640 pts_time:615.666667
lavfi.scene_score=0.236149
frame:154  pts:9527808 pts_time:620.3
lavfi.scene_score=0.255630
frame:155  pts:9654784 pts_time:628.566667
lavfi.scene_score=0.189305
frame:156  pts:9750016 pts_time:634.766667
lavfi.scene_score=0.259882
frame:157  pts:9882624 pts_time:643.4
lavfi.scene_score=0.230906
frame:158  pts:9928704 pts_time:646.4
lavfi.scene_score=0.261237
frame:159  pts:10033152 pts_time:653.2
lavfi.scene_score=0.340305
frame:160  pts:10109952 pts_time:658.2
lavfi.scene_score=0.252780
frame:161  pts:10110976 pts_time:658.266667
lavfi.scene_score=0.175113
frame:162  pts:10192896 pts_time:663.6
lavfi.scene_score=0.175425
frame:163  pts:10193920 pts_time:663.666667
lavfi.scene_score=0.112751
frame:164  pts:10263040 pts_time:668.166667
lavfi.scene_score=0.215984
frame:165  pts:10287104 pts_time:669.733333
lavfi.scene_score=0.184883
frame:166  pts:10303488 pts_time:670.8
lavfi.scene_score=0.135792
frame:167  pts:10322432 pts_time:672.033333
lavfi.scene_score=0.256747
